<svg width="44" height="44" viewBox="0 0 44 44" fill="none" xmlns="http://www.w3.org/2000/svg">
<rect opacity="0.2" width="44" height="44" rx="5" fill="#411643"/>
<g filter="url(#filter0_d_65_1749)">
<path d="M32.3182 9H20.0455C19.069 9 18.1325 9.3854 17.442 10.0714C16.7515 10.7574 16.3636 11.6879 16.3636 12.6581V21.1936C16.3636 22.1637 16.7515 23.0942 17.442 23.7802C18.1325 24.4662 19.069 24.8516 20.0455 24.8516H32.3182C33.2947 24.8516 34.2311 24.4662 34.9216 23.7802C35.6121 23.0942 36 22.1637 36 21.1936V12.6581C36 11.6879 35.6121 10.7574 34.9216 10.0714C34.2311 9.3854 33.2947 9 32.3182 9ZM33.5455 21.1936C33.5455 21.5169 33.4162 21.8271 33.186 22.0558C32.9558 22.2844 32.6437 22.4129 32.3182 22.4129H20.0455C19.72 22.4129 19.4078 22.2844 19.1776 22.0558C18.9475 21.8271 18.8182 21.5169 18.8182 21.1936V12.6581C18.8182 12.3347 18.9475 12.0245 19.1776 11.7959C19.4078 11.5672 19.72 11.4387 20.0455 11.4387H32.3182C32.6437 11.4387 32.9558 11.5672 33.186 11.7959C33.4162 12.0245 33.5455 12.3347 33.5455 12.6581V21.1936ZM29.25 16.3161C28.7957 16.3177 28.3582 16.4872 28.0227 16.7917C27.7588 16.5534 27.4309 16.3963 27.0789 16.3397C26.7269 16.283 26.3658 16.3292 26.0397 16.4725C25.7136 16.6159 25.4364 16.8503 25.2418 17.1472C25.0472 17.4441 24.9436 17.7908 24.9436 18.1452C24.9436 18.4995 25.0472 18.8462 25.2418 19.1431C25.4364 19.4401 25.7136 19.6744 26.0397 19.8178C26.3658 19.9612 26.7269 20.0073 27.0789 19.9507C27.4309 19.894 27.7588 19.737 28.0227 19.4986C28.2444 19.6988 28.5118 19.8422 28.8018 19.9164C29.0918 19.9906 29.3957 19.9934 29.687 19.9245C29.9784 19.8556 30.2484 19.7171 30.4737 19.5211C30.699 19.3251 30.8728 19.0774 30.98 18.7995C31.0871 18.5217 31.1244 18.222 31.0886 17.9266C31.0528 17.6312 30.9451 17.3489 30.7746 17.1042C30.6042 16.8596 30.3762 16.6599 30.1106 16.5226C29.8449 16.3852 29.5495 16.3144 29.25 16.3161ZM27.4091 27.2903C27.0836 27.2903 26.7714 27.4188 26.5413 27.6475C26.3111 27.8761 26.1818 28.1863 26.1818 28.5097V29.729C26.1818 30.0524 26.0525 30.3626 25.8224 30.5912C25.5922 30.8199 25.28 30.9484 24.9545 30.9484H12.6818C12.3563 30.9484 12.0442 30.8199 11.814 30.5912C11.5838 30.3626 11.4545 30.0524 11.4545 29.729V24.8516H12.6818C13.0073 24.8516 13.3195 24.7231 13.5496 24.4945C13.7798 24.2658 13.9091 23.9557 13.9091 23.6323C13.9091 23.3089 13.7798 22.9987 13.5496 22.77C13.3195 22.5414 13.0073 22.4129 12.6818 22.4129H11.4545V21.1936C11.4545 20.8702 11.5838 20.56 11.814 20.3313C12.0442 20.1027 12.3563 19.9742 12.6818 19.9742C13.0073 19.9742 13.3195 19.8457 13.5496 19.6171C13.7798 19.3884 13.9091 19.0782 13.9091 18.7548C13.9091 18.4314 13.7798 18.1213 13.5496 17.8926C13.3195 17.664 13.0073 17.5355 12.6818 17.5355C11.7053 17.5355 10.7689 17.9209 10.0784 18.6069C9.3879 19.2929 9 20.2234 9 21.1936V29.729C9 30.6992 9.3879 31.6297 10.0784 32.3157C10.7689 33.0017 11.7053 33.3871 12.6818 33.3871H24.9545C25.931 33.3871 26.8675 33.0017 27.558 32.3157C28.2485 31.6297 28.6364 30.6992 28.6364 29.729V28.5097C28.6364 28.1863 28.5071 27.8761 28.2769 27.6475C28.0467 27.4188 27.7346 27.2903 27.4091 27.2903ZM15.1364 28.5097H16.3636C16.6891 28.5097 17.0013 28.3812 17.2314 28.1525C17.4616 27.9239 17.5909 27.6137 17.5909 27.2903C17.5909 26.9669 17.4616 26.6568 17.2314 26.4281C17.0013 26.1994 16.6891 26.071 16.3636 26.071H15.1364C14.8109 26.071 14.4987 26.1994 14.2686 26.4281C14.0384 26.6568 13.9091 26.9669 13.9091 27.2903C13.9091 27.6137 14.0384 27.9239 14.2686 28.1525C14.4987 28.3812 14.8109 28.5097 15.1364 28.5097Z" fill="#411643"/>
</g>
<defs>
<filter id="filter0_d_65_1749" x="5" y="9" width="35" height="32.3867" filterUnits="userSpaceOnUse" color-interpolation-filters="sRGB">
<feFlood flood-opacity="0" result="BackgroundImageFix"/>
<feColorMatrix in="SourceAlpha" type="matrix" values="0 0 0 0 0 0 0 0 0 0 0 0 0 0 0 0 0 0 127 0" result="hardAlpha"/>
<feOffset dy="4"/>
<feGaussianBlur stdDeviation="2"/>
<feComposite in2="hardAlpha" operator="out"/>
<feColorMatrix type="matrix" values="0 0 0 0 0.254902 0 0 0 0 0.0862745 0 0 0 0 0.262745 0 0 0 0.2 0"/>
<feBlend mode="normal" in2="BackgroundImageFix" result="effect1_dropShadow_65_1749"/>
<feBlend mode="normal" in="SourceGraphic" in2="effect1_dropShadow_65_1749" result="shape"/>
</filter>
</defs>
</svg>
