<svg width="217" height="50" viewBox="0 0 217 50" fill="none" xmlns="http://www.w3.org/2000/svg">
<rect width="217" height="50" rx="25" fill="#411643"/>
<path fill-rule="evenodd" clip-rule="evenodd" d="M31.984 15.542C32.071 15.711 32.093 15.928 32.136 16.362C32.218 17.182 32.259 17.592 32.431 17.818C32.5382 17.9583 32.6806 18.0678 32.8437 18.1352C33.0069 18.2027 33.185 18.2257 33.36 18.202C33.64 18.165 33.96 17.904 34.598 17.382C34.935 17.105 35.104 16.967 35.285 16.909C35.5155 16.8353 35.7649 16.8478 35.987 16.944C36.162 17.02 36.317 17.174 36.624 17.482L37.518 18.376C37.826 18.684 37.98 18.838 38.056 19.013C38.1522 19.2351 38.1647 19.4845 38.091 19.715C38.033 19.896 37.895 20.065 37.619 20.402C37.096 21.041 36.835 21.36 36.797 21.641C36.7736 21.8159 36.7969 21.9939 36.8645 22.1569C36.9321 22.3198 37.0417 22.462 37.182 22.569C37.407 22.741 37.818 22.782 38.639 22.864C39.072 22.907 39.289 22.929 39.459 23.016C39.6735 23.1272 39.8404 23.3123 39.929 23.537C40 23.714 40 23.932 40 24.368V25.632C40 26.068 40 26.286 39.93 26.462C39.8411 26.6874 39.6734 26.8729 39.458 26.984C39.289 27.071 39.072 27.093 38.638 27.136C37.818 27.218 37.408 27.259 37.182 27.431C37.0417 27.5382 36.9322 27.6806 36.8648 27.8437C36.7973 28.0069 36.7743 28.185 36.798 28.36C36.836 28.64 37.097 28.96 37.619 29.598C37.895 29.935 38.033 30.103 38.091 30.285C38.1647 30.5155 38.1522 30.7649 38.056 30.987C37.98 31.162 37.826 31.316 37.518 31.624L36.624 32.517C36.316 32.826 36.162 32.98 35.987 33.055C35.7649 33.1512 35.5155 33.1637 35.285 33.09C35.104 33.032 34.935 32.894 34.598 32.618C33.959 32.096 33.64 31.835 33.36 31.798C33.185 31.7743 33.0069 31.7973 32.8437 31.8648C32.6806 31.9322 32.5382 32.0417 32.431 32.182C32.259 32.407 32.218 32.817 32.136 33.638C32.093 34.072 32.071 34.289 31.984 34.458C31.8732 34.6732 31.6881 34.8409 31.463 34.93C31.286 35 31.068 35 30.632 35H29.368C28.932 35 28.714 35 28.538 34.93C28.3126 34.8411 28.1271 34.6734 28.016 34.458C27.929 34.289 27.907 34.072 27.864 33.638C27.782 32.818 27.741 32.408 27.569 32.182C27.4619 32.0418 27.3197 31.9325 27.1567 31.8651C26.9937 31.7976 26.8158 31.7745 26.641 31.798C26.36 31.835 26.041 32.096 25.402 32.618C25.065 32.895 24.896 33.033 24.715 33.091C24.4845 33.1647 24.2351 33.1522 24.013 33.056C23.838 32.98 23.683 32.826 23.376 32.518L22.482 31.624C22.174 31.316 22.02 31.162 21.944 30.987C21.8478 30.7649 21.8353 30.5155 21.909 30.285C21.967 30.104 22.105 29.935 22.381 29.598C22.904 28.959 23.165 28.64 23.202 28.359C23.2255 28.1842 23.2024 28.0063 23.1349 27.8433C23.0675 27.6803 22.9582 27.5381 22.818 27.431C22.593 27.259 22.182 27.218 21.361 27.136C20.928 27.093 20.711 27.071 20.541 26.984C20.3265 26.8728 20.1596 26.6877 20.071 26.463C20 26.286 20 26.068 20 25.632V24.368C20 23.932 20 23.714 20.07 23.538C20.1589 23.3126 20.3266 23.1271 20.542 23.016C20.711 22.929 20.928 22.907 21.362 22.864C22.182 22.782 22.593 22.741 22.818 22.569C22.9583 22.462 23.0679 22.3198 23.1355 22.1569C23.2031 21.9939 23.2264 21.8159 23.203 21.641C23.165 21.36 22.903 21.041 22.381 20.401C22.105 20.064 21.967 19.896 21.909 19.714C21.8353 19.4835 21.8478 19.2341 21.944 19.012C22.02 18.838 22.174 18.683 22.482 18.375L23.376 17.482C23.684 17.174 23.838 17.019 24.013 16.944C24.2351 16.8478 24.4845 16.8353 24.715 16.909C24.896 16.967 25.065 17.105 25.402 17.381C26.041 17.903 26.36 18.164 26.64 18.202C26.8152 18.2258 26.9936 18.2027 27.157 18.135C27.3203 18.0674 27.4629 17.9577 27.57 17.817C27.74 17.592 27.782 17.182 27.864 16.361C27.907 15.928 27.929 15.711 28.016 15.541C28.127 15.3262 28.3121 15.1588 28.537 15.07C28.714 15 28.932 15 29.368 15H30.632C31.068 15 31.286 15 31.462 15.07C31.6874 15.1589 31.8729 15.3266 31.984 15.542ZM30 29C31.0609 29 32.0783 28.5786 32.8284 27.8284C33.5786 27.0783 34 26.0609 34 25C34 23.9391 33.5786 22.9217 32.8284 22.1716C32.0783 21.4214 31.0609 21 30 21C28.9391 21 27.9217 21.4214 27.1716 22.1716C26.4214 22.9217 26 23.9391 26 25C26 26.0609 26.4214 27.0783 27.1716 27.8284C27.9217 28.5786 28.9391 29 30 29Z" fill="white"/>
<path d="M50.7326 25.416C50.7326 24.328 50.9833 23.352 51.4846 22.488C51.9966 21.624 52.6846 20.952 53.5486 20.472C54.4233 19.9813 55.378 19.736 56.4126 19.736C57.5966 19.736 58.6473 20.0293 59.5646 20.616C60.4926 21.192 61.1646 22.0133 61.5806 23.08H59.3886C59.1006 22.4933 58.7006 22.056 58.1886 21.768C57.6766 21.48 57.0846 21.336 56.4126 21.336C55.6766 21.336 55.0206 21.5013 54.4446 21.832C53.8686 22.1627 53.4153 22.6373 53.0846 23.256C52.7646 23.8747 52.6046 24.5947 52.6046 25.416C52.6046 26.2373 52.7646 26.9573 53.0846 27.576C53.4153 28.1947 53.8686 28.6747 54.4446 29.016C55.0206 29.3467 55.6766 29.512 56.4126 29.512C57.0846 29.512 57.6766 29.368 58.1886 29.08C58.7006 28.792 59.1006 28.3547 59.3886 27.768H61.5806C61.1646 28.8347 60.4926 29.656 59.5646 30.232C58.6473 30.808 57.5966 31.096 56.4126 31.096C55.3673 31.096 54.4126 30.856 53.5486 30.376C52.6846 29.8853 51.9966 29.208 51.4846 28.344C50.9833 27.48 50.7326 26.504 50.7326 25.416ZM68.2756 22.04C68.9476 22.04 69.545 22.184 70.0676 22.472C70.601 22.76 71.017 23.1867 71.3156 23.752C71.625 24.3173 71.7796 25 71.7796 25.8V31H69.9716V26.072C69.9716 25.2827 69.7743 24.68 69.3796 24.264C68.985 23.8373 68.4463 23.624 67.7636 23.624C67.081 23.624 66.537 23.8373 66.1316 24.264C65.737 24.68 65.5396 25.2827 65.5396 26.072V31H63.7156V19.16H65.5396V23.208C65.849 22.8347 66.2383 22.5467 66.7076 22.344C67.1876 22.1413 67.7103 22.04 68.2756 22.04ZM73.4983 26.552C73.4983 25.6667 73.6796 24.8827 74.0423 24.2C74.4156 23.5173 74.9169 22.9893 75.5463 22.616C76.1863 22.232 76.8903 22.04 77.6583 22.04C78.3516 22.04 78.9543 22.1787 79.4663 22.456C79.9889 22.7227 80.4049 23.0587 80.7143 23.464V22.184H82.5543V31H80.7143V29.688C80.4049 30.104 79.9836 30.4507 79.4503 30.728C78.9169 31.0053 78.3089 31.144 77.6263 31.144C76.8689 31.144 76.1756 30.952 75.5463 30.568C74.9169 30.1733 74.4156 29.6293 74.0423 28.936C73.6796 28.232 73.4983 27.4373 73.4983 26.552ZM80.7143 26.584C80.7143 25.976 80.5863 25.448 80.3303 25C80.0849 24.552 79.7596 24.2107 79.3543 23.976C78.9489 23.7413 78.5116 23.624 78.0423 23.624C77.5729 23.624 77.1356 23.7413 76.7303 23.976C76.3249 24.2 75.9943 24.536 75.7383 24.984C75.4929 25.4213 75.3703 25.944 75.3703 26.552C75.3703 27.16 75.4929 27.6933 75.7383 28.152C75.9943 28.6107 76.3249 28.9627 76.7303 29.208C77.1463 29.4427 77.5836 29.56 78.0423 29.56C78.5116 29.56 78.9489 29.4427 79.3543 29.208C79.7596 28.9733 80.0849 28.632 80.3303 28.184C80.5863 27.7253 80.7143 27.192 80.7143 26.584ZM89.398 22.04C90.0913 22.04 90.71 22.184 91.254 22.472C91.8087 22.76 92.2407 23.1867 92.55 23.752C92.8593 24.3173 93.014 25 93.014 25.8V31H91.206V26.072C91.206 25.2827 91.0087 24.68 90.614 24.264C90.2193 23.8373 89.6807 23.624 88.998 23.624C88.3153 23.624 87.7713 23.8373 87.366 24.264C86.9713 24.68 86.774 25.2827 86.774 26.072V31H84.95V22.184H86.774V23.192C87.0727 22.8293 87.4513 22.5467 87.91 22.344C88.3793 22.1413 88.8753 22.04 89.398 22.04ZM98.8926 22.04C99.5753 22.04 100.178 22.1787 100.701 22.456C101.234 22.7227 101.65 23.0587 101.949 23.464V22.184H103.789V31.144C103.789 31.9547 103.618 32.6747 103.277 33.304C102.935 33.944 102.439 34.4453 101.789 34.808C101.149 35.1707 100.381 35.352 99.4846 35.352C98.29 35.352 97.298 35.0693 96.5086 34.504C95.7193 33.9493 95.2713 33.192 95.1646 32.232H96.9726C97.1113 32.6907 97.4046 33.0587 97.8526 33.336C98.3113 33.624 98.8553 33.768 99.4846 33.768C100.221 33.768 100.813 33.544 101.261 33.096C101.719 32.648 101.949 31.9973 101.949 31.144V29.672C101.639 30.088 101.218 30.44 100.685 30.728C100.162 31.0053 99.5646 31.144 98.8926 31.144C98.1246 31.144 97.4206 30.952 96.7806 30.568C96.1513 30.1733 95.65 29.6293 95.2766 28.936C94.914 28.232 94.7326 27.4373 94.7326 26.552C94.7326 25.6667 94.914 24.8827 95.2766 24.2C95.65 23.5173 96.1513 22.9893 96.7806 22.616C97.4206 22.232 98.1246 22.04 98.8926 22.04ZM101.949 26.584C101.949 25.976 101.821 25.448 101.565 25C101.319 24.552 100.994 24.2107 100.589 23.976C100.183 23.7413 99.746 23.624 99.2766 23.624C98.8073 23.624 98.37 23.7413 97.9646 23.976C97.5593 24.2 97.2286 24.536 96.9726 24.984C96.7273 25.4213 96.6046 25.944 96.6046 26.552C96.6046 27.16 96.7273 27.6933 96.9726 28.152C97.2286 28.6107 97.5593 28.9627 97.9646 29.208C98.3806 29.4427 98.818 29.56 99.2766 29.56C99.746 29.56 100.183 29.4427 100.589 29.208C100.994 28.9733 101.319 28.632 101.565 28.184C101.821 27.7253 101.949 27.192 101.949 26.584ZM114.264 26.376C114.264 26.7067 114.243 27.0053 114.2 27.272H107.464C107.518 27.976 107.779 28.5413 108.248 28.968C108.718 29.3947 109.294 29.608 109.976 29.608C110.958 29.608 111.651 29.1973 112.056 28.376H114.024C113.758 29.1867 113.272 29.8533 112.568 30.376C111.875 30.888 111.011 31.144 109.976 31.144C109.134 31.144 108.376 30.9573 107.704 30.584C107.043 30.2 106.52 29.6667 106.136 28.984C105.763 28.2907 105.576 27.4907 105.576 26.584C105.576 25.6773 105.758 24.8827 106.12 24.2C106.494 23.5067 107.011 22.9733 107.672 22.6C108.344 22.2267 109.112 22.04 109.976 22.04C110.808 22.04 111.55 22.2213 112.2 22.584C112.851 22.9467 113.358 23.4587 113.72 24.12C114.083 24.7707 114.264 25.5227 114.264 26.376ZM112.36 25.8C112.35 25.128 112.11 24.5893 111.64 24.184C111.171 23.7787 110.59 23.576 109.896 23.576C109.267 23.576 108.728 23.7787 108.28 24.184C107.832 24.5787 107.566 25.1173 107.48 25.8H112.36ZM127.992 23.192C127.992 23.7573 127.858 24.2907 127.592 24.792C127.325 25.2933 126.898 25.704 126.312 26.024C125.725 26.3333 124.973 26.488 124.056 26.488H122.04V31H120.216V19.88H124.056C124.909 19.88 125.629 20.0293 126.216 20.328C126.813 20.616 127.256 21.0107 127.544 21.512C127.842 22.0133 127.992 22.5733 127.992 23.192ZM124.056 25C124.749 25 125.266 24.8453 125.608 24.536C125.949 24.216 126.12 23.768 126.12 23.192C126.12 21.976 125.432 21.368 124.056 21.368H122.04V25H124.056ZM129.123 26.552C129.123 25.6667 129.305 24.8827 129.667 24.2C130.041 23.5173 130.542 22.9893 131.171 22.616C131.811 22.232 132.515 22.04 133.283 22.04C133.977 22.04 134.579 22.1787 135.091 22.456C135.614 22.7227 136.03 23.0587 136.339 23.464V22.184H138.179V31H136.339V29.688C136.03 30.104 135.609 30.4507 135.075 30.728C134.542 31.0053 133.934 31.144 133.251 31.144C132.494 31.144 131.801 30.952 131.171 30.568C130.542 30.1733 130.041 29.6293 129.667 28.936C129.305 28.232 129.123 27.4373 129.123 26.552ZM136.339 26.584C136.339 25.976 136.211 25.448 135.955 25C135.71 24.552 135.385 24.2107 134.979 23.976C134.574 23.7413 134.137 23.624 133.667 23.624C133.198 23.624 132.761 23.7413 132.355 23.976C131.95 24.2 131.619 24.536 131.363 24.984C131.118 25.4213 130.995 25.944 130.995 26.552C130.995 27.16 131.118 27.6933 131.363 28.152C131.619 28.6107 131.95 28.9627 132.355 29.208C132.771 29.4427 133.209 29.56 133.667 29.56C134.137 29.56 134.574 29.4427 134.979 29.208C135.385 28.9733 135.71 28.632 135.955 28.184C136.211 27.7253 136.339 27.192 136.339 26.584ZM143.775 31.144C143.082 31.144 142.458 31.0213 141.903 30.776C141.359 30.52 140.927 30.1787 140.607 29.752C140.287 29.3147 140.116 28.8293 140.095 28.296H141.983C142.015 28.6693 142.191 28.984 142.511 29.24C142.842 29.4853 143.252 29.608 143.743 29.608C144.255 29.608 144.65 29.512 144.927 29.32C145.215 29.1173 145.359 28.8613 145.359 28.552C145.359 28.2213 145.199 27.976 144.879 27.816C144.57 27.656 144.074 27.48 143.391 27.288C142.73 27.1067 142.191 26.9307 141.775 26.76C141.359 26.5893 140.996 26.328 140.687 25.976C140.388 25.624 140.239 25.16 140.239 24.584C140.239 24.1147 140.378 23.688 140.655 23.304C140.932 22.9093 141.327 22.6 141.839 22.376C142.362 22.152 142.959 22.04 143.631 22.04C144.634 22.04 145.439 22.296 146.047 22.808C146.666 23.3093 146.996 23.9973 147.039 24.872H145.215C145.183 24.4773 145.023 24.1627 144.735 23.928C144.447 23.6933 144.058 23.576 143.567 23.576C143.087 23.576 142.719 23.6667 142.463 23.848C142.207 24.0293 142.079 24.2693 142.079 24.568C142.079 24.8027 142.164 25 142.335 25.16C142.506 25.32 142.714 25.448 142.959 25.544C143.204 25.6293 143.567 25.7413 144.047 25.88C144.687 26.0507 145.21 26.2267 145.615 26.408C146.031 26.5787 146.388 26.8347 146.687 27.176C146.986 27.5173 147.14 27.9707 147.151 28.536C147.151 29.0373 147.012 29.4853 146.735 29.88C146.458 30.2747 146.063 30.584 145.551 30.808C145.05 31.032 144.458 31.144 143.775 31.144ZM152.322 31.144C151.629 31.144 151.005 31.0213 150.45 30.776C149.906 30.52 149.474 30.1787 149.154 29.752C148.834 29.3147 148.663 28.8293 148.642 28.296H150.53C150.562 28.6693 150.738 28.984 151.058 29.24C151.389 29.4853 151.799 29.608 152.29 29.608C152.802 29.608 153.197 29.512 153.474 29.32C153.762 29.1173 153.906 28.8613 153.906 28.552C153.906 28.2213 153.746 27.976 153.426 27.816C153.117 27.656 152.621 27.48 151.938 27.288C151.277 27.1067 150.738 26.9307 150.322 26.76C149.906 26.5893 149.543 26.328 149.234 25.976C148.935 25.624 148.786 25.16 148.786 24.584C148.786 24.1147 148.925 23.688 149.202 23.304C149.479 22.9093 149.874 22.6 150.386 22.376C150.909 22.152 151.506 22.04 152.178 22.04C153.181 22.04 153.986 22.296 154.594 22.808C155.213 23.3093 155.543 23.9973 155.586 24.872H153.762C153.73 24.4773 153.57 24.1627 153.282 23.928C152.994 23.6933 152.605 23.576 152.114 23.576C151.634 23.576 151.266 23.6667 151.01 23.848C150.754 24.0293 150.626 24.2693 150.626 24.568C150.626 24.8027 150.711 25 150.882 25.16C151.053 25.32 151.261 25.448 151.506 25.544C151.751 25.6293 152.114 25.7413 152.594 25.88C153.234 26.0507 153.757 26.2267 154.162 26.408C154.578 26.5787 154.935 26.8347 155.234 27.176C155.533 27.5173 155.687 27.9707 155.698 28.536C155.698 29.0373 155.559 29.4853 155.282 29.88C155.005 30.2747 154.61 30.584 154.098 30.808C153.597 31.032 153.005 31.144 152.322 31.144ZM169.509 22.184L166.773 31H164.853L163.077 24.488L161.301 31H159.381L156.629 22.184H158.485L160.325 29.272L162.197 22.184H164.101L165.893 29.24L167.717 22.184H169.509ZM174.696 31.144C173.864 31.144 173.112 30.9573 172.44 30.584C171.768 30.2 171.24 29.6667 170.856 28.984C170.472 28.2907 170.28 27.4907 170.28 26.584C170.28 25.688 170.477 24.8933 170.872 24.2C171.267 23.5067 171.805 22.9733 172.488 22.6C173.171 22.2267 173.933 22.04 174.776 22.04C175.619 22.04 176.381 22.2267 177.064 22.6C177.747 22.9733 178.285 23.5067 178.68 24.2C179.075 24.8933 179.272 25.688 179.272 26.584C179.272 27.48 179.069 28.2747 178.664 28.968C178.259 29.6613 177.704 30.2 177 30.584C176.307 30.9573 175.539 31.144 174.696 31.144ZM174.696 29.56C175.165 29.56 175.603 29.448 176.008 29.224C176.424 29 176.76 28.664 177.016 28.216C177.272 27.768 177.4 27.224 177.4 26.584C177.4 25.944 177.277 25.4053 177.032 24.968C176.787 24.52 176.461 24.184 176.056 23.96C175.651 23.736 175.213 23.624 174.744 23.624C174.275 23.624 173.837 23.736 173.432 23.96C173.037 24.184 172.723 24.52 172.488 24.968C172.253 25.4053 172.136 25.944 172.136 26.584C172.136 27.5333 172.376 28.2693 172.856 28.792C173.347 29.304 173.96 29.56 174.696 29.56ZM182.899 23.464C183.166 23.016 183.518 22.6693 183.955 22.424C184.403 22.168 184.931 22.04 185.539 22.04V23.928H185.075C184.36 23.928 183.816 24.1093 183.443 24.472C183.08 24.8347 182.899 25.464 182.899 26.36V31H181.075V22.184H182.899V23.464ZM186.608 26.552C186.608 25.6667 186.789 24.8827 187.152 24.2C187.525 23.5173 188.026 22.9893 188.656 22.616C189.296 22.232 190.005 22.04 190.784 22.04C191.36 22.04 191.925 22.168 192.48 22.424C193.045 22.6693 193.493 23 193.824 23.416V19.16H195.664V31H193.824V29.672C193.525 30.0987 193.109 30.4507 192.576 30.728C192.053 31.0053 191.45 31.144 190.768 31.144C190 31.144 189.296 30.952 188.656 30.568C188.026 30.1733 187.525 29.6293 187.152 28.936C186.789 28.232 186.608 27.4373 186.608 26.552ZM193.824 26.584C193.824 25.976 193.696 25.448 193.44 25C193.194 24.552 192.869 24.2107 192.464 23.976C192.058 23.7413 191.621 23.624 191.152 23.624C190.682 23.624 190.245 23.7413 189.84 23.976C189.434 24.2 189.104 24.536 188.848 24.984C188.602 25.4213 188.48 25.944 188.48 26.552C188.48 27.16 188.602 27.6933 188.848 28.152C189.104 28.6107 189.434 28.9627 189.84 29.208C190.256 29.4427 190.693 29.56 191.152 29.56C191.621 29.56 192.058 29.4427 192.464 29.208C192.869 28.9733 193.194 28.632 193.44 28.184C193.696 27.7253 193.824 27.192 193.824 26.584Z" fill="white"/>
</svg>
