<svg width="44" height="44" viewBox="0 0 44 44" fill="none" xmlns="http://www.w3.org/2000/svg">
<rect opacity="0.2" width="44" height="44" rx="5" fill="#309A47"/>
<mask id="path-2-inside-1_550_4072" fill="white">
<path d="M17.6667 11.7333C18.5237 11.7333 19.3615 11.9875 20.0741 12.4636C20.7868 12.9398 21.3422 13.6166 21.6701 14.4084C21.9981 15.2002 22.0839 16.0715 21.9167 16.9121C21.7495 17.7526 21.3368 18.5248 20.7308 19.1308C20.1248 19.7368 19.3526 20.1495 18.5121 20.3167C17.6715 20.4839 16.8002 20.3981 16.0084 20.0701C15.2166 19.7422 14.5398 19.1868 14.0636 18.4741C13.5875 17.7615 13.3333 16.9237 13.3333 16.0667C13.3333 14.9174 13.7899 13.8152 14.6025 13.0025C15.4152 12.1899 16.5174 11.7333 17.6667 11.7333ZM17.6667 10C16.4668 10 15.2939 10.3558 14.2962 11.0224C13.2985 11.689 12.521 12.6365 12.0618 13.7451C11.6026 14.8536 11.4825 16.0734 11.7166 17.2502C11.9507 18.427 12.5284 19.508 13.3769 20.3564C14.2253 21.2049 15.3063 21.7827 16.4831 22.0168C17.6599 22.2508 18.8797 22.1307 19.9883 21.6715C21.0968 21.2124 22.0443 20.4348 22.7109 19.4371C23.3775 18.4395 23.7333 17.2665 23.7333 16.0667C23.7333 14.4577 23.0942 12.9146 21.9564 11.7769C20.8187 10.6392 19.2756 10 17.6667 10ZM26.3333 34.2667H24.6V29.9333C24.6 28.7841 24.1435 27.6819 23.3308 26.8692C22.5181 26.0565 21.4159 25.6 20.2667 25.6H15.0667C13.9174 25.6 12.8152 26.0565 12.0025 26.8692C11.1899 27.6819 10.7333 28.7841 10.7333 29.9333V34.2667H9V29.9333C9 28.3244 9.63916 26.7813 10.7769 25.6436C11.9146 24.5058 13.4577 23.8667 15.0667 23.8667H20.2667C21.8756 23.8667 23.4187 24.5058 24.5564 25.6436C25.6942 26.7813 26.3333 28.3244 26.3333 29.9333V34.2667ZM26.3333 11.7333H35V13.4667H26.3333V11.7333ZM26.3333 16.0667H35V17.8H26.3333V16.0667ZM26.3333 20.4H32.4V22.1333H26.3333V20.4Z"/>
</mask>
<path d="M17.6667 11.7333C18.5237 11.7333 19.3615 11.9875 20.0741 12.4636C20.7868 12.9398 21.3422 13.6166 21.6701 14.4084C21.9981 15.2002 22.0839 16.0715 21.9167 16.9121C21.7495 17.7526 21.3368 18.5248 20.7308 19.1308C20.1248 19.7368 19.3526 20.1495 18.5121 20.3167C17.6715 20.4839 16.8002 20.3981 16.0084 20.0701C15.2166 19.7422 14.5398 19.1868 14.0636 18.4741C13.5875 17.7615 13.3333 16.9237 13.3333 16.0667C13.3333 14.9174 13.7899 13.8152 14.6025 13.0025C15.4152 12.1899 16.5174 11.7333 17.6667 11.7333ZM17.6667 10C16.4668 10 15.2939 10.3558 14.2962 11.0224C13.2985 11.689 12.521 12.6365 12.0618 13.7451C11.6026 14.8536 11.4825 16.0734 11.7166 17.2502C11.9507 18.427 12.5284 19.508 13.3769 20.3564C14.2253 21.2049 15.3063 21.7827 16.4831 22.0168C17.6599 22.2508 18.8797 22.1307 19.9883 21.6715C21.0968 21.2124 22.0443 20.4348 22.7109 19.4371C23.3775 18.4395 23.7333 17.2665 23.7333 16.0667C23.7333 14.4577 23.0942 12.9146 21.9564 11.7769C20.8187 10.6392 19.2756 10 17.6667 10ZM26.3333 34.2667H24.6V29.9333C24.6 28.7841 24.1435 27.6819 23.3308 26.8692C22.5181 26.0565 21.4159 25.6 20.2667 25.6H15.0667C13.9174 25.6 12.8152 26.0565 12.0025 26.8692C11.1899 27.6819 10.7333 28.7841 10.7333 29.9333V34.2667H9V29.9333C9 28.3244 9.63916 26.7813 10.7769 25.6436C11.9146 24.5058 13.4577 23.8667 15.0667 23.8667H20.2667C21.8756 23.8667 23.4187 24.5058 24.5564 25.6436C25.6942 26.7813 26.3333 28.3244 26.3333 29.9333V34.2667ZM26.3333 11.7333H35V13.4667H26.3333V11.7333ZM26.3333 16.0667H35V17.8H26.3333V16.0667ZM26.3333 20.4H32.4V22.1333H26.3333V20.4Z" fill="#262626"/>
<path d="M17.6667 11.7333V15.7333V11.7333ZM13.3333 16.0667H9.33333H13.3333ZM17.6667 10V14V10ZM26.3333 34.2667V38.2667H30.3333V34.2667H26.3333ZM24.6 34.2667H20.6V38.2667H24.6V34.2667ZM10.7333 29.9333H6.73333H10.7333ZM10.7333 34.2667V38.2667H14.7333V34.2667H10.7333ZM9 34.2667H5V38.2667H9V34.2667ZM15.0667 23.8667V19.8667V23.8667ZM26.3333 11.7333V7.73333H22.3333V11.7333H26.3333ZM35 11.7333H39V7.73333H35V11.7333ZM35 13.4667V17.4667H39V13.4667H35ZM26.3333 13.4667H22.3333V17.4667H26.3333V13.4667ZM26.3333 16.0667V12.0667H22.3333V16.0667H26.3333ZM35 16.0667H39V12.0667H35V16.0667ZM35 17.8V21.8H39V17.8H35ZM26.3333 17.8H22.3333V21.8H26.3333V17.8ZM26.3333 20.4V16.4H22.3333V20.4H26.3333ZM32.4 20.4H36.4V16.4H32.4V20.4ZM32.4 22.1333V26.1333H36.4V22.1333H32.4ZM26.3333 22.1333H22.3333V26.1333H26.3333V22.1333ZM17.6667 15.7333C17.7326 15.7333 17.797 15.7529 17.8519 15.7895L22.2964 9.13775C20.926 8.22207 19.3148 7.73333 17.6667 7.73333V15.7333ZM17.8519 15.7895C17.9067 15.8261 17.9494 15.8782 17.9746 15.9391L25.3657 12.8776C24.7349 11.3549 23.6668 10.0534 22.2964 9.13775L17.8519 15.7895ZM17.9746 15.9391C17.9999 16 18.0065 16.067 17.9936 16.1317L25.8399 17.6924C26.1614 16.0759 25.9964 14.4004 25.3657 12.8776L17.9746 15.9391ZM17.9936 16.1317C17.9807 16.1964 17.949 16.2558 17.9024 16.3024L23.5592 21.9592C24.7247 20.7938 25.5183 19.3089 25.8399 17.6924L17.9936 16.1317ZM17.9024 16.3024C17.8558 16.349 17.7964 16.3807 17.7317 16.3936L19.2924 24.2399C20.9089 23.9183 22.3938 23.1247 23.5592 21.9592L17.9024 16.3024ZM17.7317 16.3936C17.667 16.4065 17.6 16.3999 17.5391 16.3746L14.4776 23.7657C16.0004 24.3964 17.6759 24.5614 19.2924 24.2399L17.7317 16.3936ZM17.5391 16.3746C17.4782 16.3494 17.4261 16.3067 17.3895 16.2519L10.7378 20.6964C11.6534 22.0668 12.9549 23.1349 14.4776 23.7657L17.5391 16.3746ZM17.3895 16.2519C17.3529 16.197 17.3333 16.1326 17.3333 16.0667H9.33333C9.33333 17.7148 9.82207 19.326 10.7378 20.6964L17.3895 16.2519ZM17.3333 16.0667C17.3333 15.9783 17.3685 15.8935 17.431 15.831L11.7741 10.1741C10.2113 11.7369 9.33333 13.8565 9.33333 16.0667H17.3333ZM17.431 15.831C17.4935 15.7685 17.5783 15.7333 17.6667 15.7333V7.73333C15.4565 7.73333 13.3369 8.61131 11.7741 10.1741L17.431 15.831ZM17.6667 6C15.6757 6 13.7294 6.5904 12.0739 7.69654L16.5185 14.3483C16.8584 14.1212 17.2579 14 17.6667 14V6ZM12.0739 7.69654C10.4185 8.80268 9.1282 10.3749 8.36628 12.2143L15.7573 15.2758C15.9137 14.8982 16.1786 14.5754 16.5185 14.3483L12.0739 7.69654ZM8.36628 12.2143C7.60436 14.0538 7.405 16.0778 7.79343 18.0306L15.6397 16.4699C15.56 16.069 15.6009 15.6534 15.7573 15.2758L8.36628 12.2143ZM7.79343 18.0306C8.18185 19.9833 9.14061 21.777 10.5485 23.1849L16.2053 17.528C15.9163 17.239 15.7195 16.8707 15.6397 16.4699L7.79343 18.0306ZM10.5485 23.1849C11.9563 24.5927 13.75 25.5515 15.7028 25.9399L17.2635 18.0936C16.8626 18.0139 16.4943 17.8171 16.2053 17.528L10.5485 23.1849ZM15.7028 25.9399C17.6555 26.3283 19.6796 26.129 21.519 25.3671L18.4575 17.976C18.0799 18.1324 17.6644 18.1734 17.2635 18.0936L15.7028 25.9399ZM21.519 25.3671C23.3585 24.6051 24.9307 23.3149 26.0368 21.6594L19.385 17.2148C19.1579 17.5547 18.8352 17.8196 18.4575 17.976L21.519 25.3671ZM26.0368 21.6594C27.1429 20.004 27.7333 18.0577 27.7333 16.0667H19.7333C19.7333 16.4754 19.6121 16.875 19.385 17.2148L26.0368 21.6594ZM27.7333 16.0667C27.7333 13.3968 26.6727 10.8363 24.7849 8.94846L19.128 14.6053C19.5156 14.9929 19.7333 15.5186 19.7333 16.0667H27.7333ZM24.7849 8.94846C22.897 7.06059 20.3365 6 17.6667 6V14C18.2148 14 18.7404 14.2177 19.128 14.6053L24.7849 8.94846ZM26.3333 30.2667H24.6V38.2667H26.3333V30.2667ZM28.6 34.2667V29.9333H20.6V34.2667H28.6ZM28.6 29.9333C28.6 27.7232 27.722 25.6036 26.1592 24.0408L20.5024 29.6976C20.5649 29.7601 20.6 29.8449 20.6 29.9333H28.6ZM26.1592 24.0408C24.5964 22.478 22.4768 21.6 20.2667 21.6V29.6C20.3551 29.6 20.4399 29.6351 20.5024 29.6976L26.1592 24.0408ZM20.2667 21.6H15.0667V29.6H20.2667V21.6ZM15.0667 21.6C12.8565 21.6 10.7369 22.478 9.17411 24.0408L14.831 29.6976C14.8935 29.6351 14.9783 29.6 15.0667 29.6V21.6ZM9.17411 24.0408C7.61131 25.6036 6.73333 27.7232 6.73333 29.9333H14.7333C14.7333 29.8449 14.7685 29.7601 14.831 29.6976L9.17411 24.0408ZM6.73333 29.9333V34.2667H14.7333V29.9333H6.73333ZM10.7333 30.2667H9V38.2667H10.7333V30.2667ZM13 34.2667V29.9333H5V34.2667H13ZM13 29.9333C13 29.3852 13.2177 28.8596 13.6053 28.472L7.94846 22.8151C6.06059 24.703 5 27.2635 5 29.9333H13ZM13.6053 28.472C13.9929 28.0844 14.5186 27.8667 15.0667 27.8667V19.8667C12.3968 19.8667 9.83632 20.9273 7.94846 22.8151L13.6053 28.472ZM15.0667 27.8667H20.2667V19.8667H15.0667V27.8667ZM20.2667 27.8667C20.8148 27.8667 21.3404 28.0844 21.728 28.472L27.3849 22.8151C25.497 20.9273 22.9365 19.8667 20.2667 19.8667V27.8667ZM21.728 28.472C22.1156 28.8596 22.3333 29.3852 22.3333 29.9333H30.3333C30.3333 27.2635 29.2727 24.703 27.3849 22.8151L21.728 28.472ZM22.3333 29.9333V34.2667H30.3333V29.9333H22.3333ZM26.3333 15.7333H35V7.73333H26.3333V15.7333ZM31 11.7333V13.4667H39V11.7333H31ZM35 9.46667H26.3333V17.4667H35V9.46667ZM30.3333 13.4667V11.7333H22.3333V13.4667H30.3333ZM26.3333 20.0667H35V12.0667H26.3333V20.0667ZM31 16.0667V17.8H39V16.0667H31ZM35 13.8H26.3333V21.8H35V13.8ZM30.3333 17.8V16.0667H22.3333V17.8H30.3333ZM26.3333 24.4H32.4V16.4H26.3333V24.4ZM28.4 20.4V22.1333H36.4V20.4H28.4ZM32.4 18.1333H26.3333V26.1333H32.4V18.1333ZM30.3333 22.1333V20.4H22.3333V22.1333H30.3333Z" fill="#309A47" mask="url(#path-2-inside-1_550_4072)"/>
</svg>
