<svg width="32" height="32" viewBox="0 0 32 32" fill="none" xmlns="http://www.w3.org/2000/svg">
<path d="M16.0001 15.9998C16.0001 16.7362 16.597 17.3332 17.3334 17.3332C18.0698 17.3332 18.6667 16.7362 18.6667 15.9998C18.6667 15.2635 18.0698 14.6665 17.3334 14.6665C16.597 14.6665 16.0001 15.2635 16.0001 15.9998Z" fill="white"/>
<path d="M12.0001 17.3332C11.2637 17.3332 10.6667 16.7362 10.6667 15.9998C10.6667 15.2635 11.2637 14.6665 12.0001 14.6665C12.7364 14.6665 13.3334 15.2635 13.3334 15.9998C13.3334 16.7362 12.7364 17.3332 12.0001 17.3332Z" fill="white"/>
<path d="M21.3334 15.9998C21.3334 16.7362 21.9303 17.3332 22.6667 17.3332C23.4031 17.3332 24.0001 16.7362 24.0001 15.9998C24.0001 15.2635 23.4031 14.6665 22.6667 14.6665C21.9303 14.6665 21.3334 15.2635 21.3334 15.9998Z" fill="white"/>
<path fill-rule="evenodd" clip-rule="evenodd" d="M26.6667 6.6665C28.1395 6.6665 29.3334 7.86041 29.3334 9.33317V22.6665C29.3334 24.1393 28.1395 25.3332 26.6667 25.3332L8.31378 25.3332C6.84102 25.3332 5.64711 24.1393 5.64711 22.6665V20.8997C5.64711 20.1174 5.30359 19.3745 4.70751 18.8678L3.72379 18.0317C2.47098 16.9668 2.47098 15.0329 3.72379 13.968L4.70751 13.1318C5.30359 12.6252 5.64711 11.8823 5.64711 11.1L5.64711 9.33317C5.64711 7.86041 6.84102 6.6665 8.31378 6.6665H26.6667ZM26.6667 9.33317V22.6665L8.31378 22.6665V20.8997C8.31378 19.335 7.62673 17.8493 6.43457 16.836L5.45085 15.9998L6.43457 15.1637C7.62672 14.1503 8.31378 12.6646 8.31378 11.1V9.33317L26.6667 9.33317Z" fill="white"/>
</svg>
