<svg width="93" height="96" viewBox="0 0 93 96" fill="none" xmlns="http://www.w3.org/2000/svg">
<path fill-rule="evenodd" clip-rule="evenodd" d="M46.9164 95.748C21.4634 95.748 0.832031 74.3154 0.832031 47.874C0.832031 21.4326 21.4634 0 46.9164 0C72.3693 0 93.0007 21.4326 93.0007 47.874C93.0007 74.3154 72.3693 95.748 46.9164 95.748ZM69.9413 48.5293L48.3507 11.9685L26.7545 48.5323L48.3507 61.557L69.9413 48.5293ZM69.9585 52.7093L48.3507 65.728L26.7545 52.7123L48.3507 83.7646L69.9585 52.7093Z" fill="#F36D36"/>
<path d="M48.3516 11.9688V38.5089L69.945 48.5325L48.3516 11.9688ZM48.3516 65.7313V83.7648L69.9594 52.7095L48.3516 65.7313Z" fill="#F36D36" fill-opacity="0.2"/>
<path d="M48.3516 61.557L69.945 48.5323L48.3516 38.5146V61.557Z" fill="white" fill-opacity="0.801"/>
<path d="M26.7539 48.5323L48.3502 61.557V38.5146L26.7539 48.5323Z" fill="#5B5858" fill-opacity="0.298"/>
</svg>
