<svg width="49" height="48" viewBox="0 0 49 48" fill="none" xmlns="http://www.w3.org/2000/svg">
<path d="M10.3678 5.26519C10.7867 4.77021 11.0147 4.11553 11.0039 3.43907C10.993 2.76262 10.7442 2.1172 10.3097 1.6388C9.87529 1.1604 9.28918 0.886366 8.67489 0.87443C8.06059 0.862495 7.46607 1.11359 7.01658 1.57482L0.693456 8.53778C0.249413 9.02736 0 9.69102 0 10.383C0 11.0749 0.249413 11.7386 0.693456 12.2281L7.01658 19.1911C7.23365 19.4477 7.49543 19.6534 7.7863 19.7961C8.07716 19.9388 8.39114 20.0156 8.70952 20.0218C9.0279 20.028 9.34415 19.9635 9.6394 19.8321C9.93465 19.7008 10.2029 19.5053 10.428 19.2574C10.6532 19.0094 10.8307 18.7141 10.9499 18.389C11.0692 18.0638 11.1278 17.7156 11.1222 17.365C11.1165 17.0144 11.0468 16.6686 10.9172 16.3484C10.7877 16.0281 10.6008 15.7398 10.3678 15.5007L8.09151 12.9941H40.3078C40.9367 12.9941 41.5398 12.719 41.9845 12.2293C42.4291 11.7396 42.679 11.0755 42.679 10.383C42.679 9.69046 42.4291 9.02631 41.9845 8.53663C41.5398 8.04695 40.9367 7.77185 40.3078 7.77185H8.09151L10.3678 5.26519ZM38.6322 29.4267C38.1881 29.9163 37.9387 30.5799 37.9387 31.2719C37.9387 31.9638 38.1881 32.6275 38.6322 33.117L40.9085 35.6237H8.6922C8.06333 35.6237 7.46021 35.8988 7.01553 36.3885C6.57085 36.8782 6.32103 37.5423 6.32103 38.2348C6.32103 38.9273 6.57085 39.5915 7.01553 40.0812C7.46021 40.5708 8.06333 40.8459 8.6922 40.8459H40.9085L38.6322 43.3526C38.3992 43.5916 38.2124 43.8799 38.0828 44.2002C37.9532 44.5205 37.8835 44.8663 37.8778 45.2169C37.8722 45.5674 37.9308 45.9157 38.0501 46.2408C38.1693 46.566 38.3468 46.8613 38.572 47.1092C38.7971 47.3572 39.0654 47.5527 39.3606 47.684C39.6559 47.8153 39.9721 47.8798 40.2905 47.8736C40.6089 47.8674 40.9228 47.7907 41.2137 47.648C41.5046 47.5053 41.7663 47.2995 41.9834 47.043L48.3065 40.08C48.7506 39.5904 49 38.9268 49 38.2348C49 37.5429 48.7506 36.8792 48.3065 36.3896L41.9834 29.4267C41.5388 28.9377 40.9362 28.663 40.3078 28.663C39.6794 28.663 39.0768 28.9377 38.6322 29.4267Z" fill="#411643"/>
</svg>
