<svg width="44" height="44" viewBox="0 0 44 44" fill="none" xmlns="http://www.w3.org/2000/svg">
<rect opacity="0.2" width="44" height="44" rx="5" fill="#411643"/>
<g filter="url(#filter0_d_1_4845)">
<path d="M32.92 14.16H12.12C11.8442 14.16 11.5796 14.0504 11.3846 13.8554C11.1896 13.6604 11.08 13.3958 11.08 13.12C11.08 12.8442 11.1896 12.5796 11.3846 12.3846C11.5796 12.1896 11.8442 12.08 12.12 12.08H29.8C30.0758 12.08 30.3404 11.9704 30.5354 11.7754C30.7304 11.5804 30.84 11.3158 30.84 11.04C30.84 10.7642 30.7304 10.4996 30.5354 10.3046C30.3404 10.1096 30.0758 10 29.8 10H12.12C11.2925 10 10.4989 10.3287 9.91383 10.9138C9.32871 11.4989 9 12.2925 9 13.12V29.76C9 30.5875 9.32871 31.3811 9.91383 31.9662C10.4989 32.5513 11.2925 32.88 12.12 32.88H32.92C33.4716 32.88 34.0007 32.6609 34.3908 32.2708C34.7809 31.8807 35 31.3517 35 30.8V16.24C35 15.6884 34.7809 15.1593 34.3908 14.7692C34.0007 14.3791 33.4716 14.16 32.92 14.16ZM32.92 30.8H12.12C11.8442 30.8 11.5796 30.6904 11.3846 30.4954C11.1896 30.3004 11.08 30.0358 11.08 29.76V16.0619C11.4139 16.1803 11.7657 16.2405 12.12 16.24H32.92V30.8ZM26.68 23C26.68 22.6915 26.7715 22.3899 26.9429 22.1333C27.1143 21.8768 27.358 21.6768 27.643 21.5588C27.9281 21.4407 28.2417 21.4098 28.5443 21.47C28.847 21.5302 29.1249 21.6787 29.3431 21.8969C29.5613 22.1151 29.7098 22.3931 29.77 22.6957C29.8302 22.9983 29.7993 23.3119 29.6812 23.597C29.5632 23.882 29.3632 24.1257 29.1067 24.2971C28.8501 24.4685 28.5485 24.56 28.24 24.56C27.8263 24.56 27.4295 24.3956 27.1369 24.1031C26.8444 23.8105 26.68 23.4137 26.68 23Z" fill="#411643"/>
</g>
<defs>
<filter id="filter0_d_1_4845" x="4.3" y="9.3" width="35.4" height="32.2799" filterUnits="userSpaceOnUse" color-interpolation-filters="sRGB">
<feFlood flood-opacity="0" result="BackgroundImageFix"/>
<feColorMatrix in="SourceAlpha" type="matrix" values="0 0 0 0 0 0 0 0 0 0 0 0 0 0 0 0 0 0 127 0" result="hardAlpha"/>
<feOffset dy="4"/>
<feGaussianBlur stdDeviation="2.35"/>
<feComposite in2="hardAlpha" operator="out"/>
<feColorMatrix type="matrix" values="0 0 0 0 0.254902 0 0 0 0 0.0862745 0 0 0 0 0.262745 0 0 0 0.5 0"/>
<feBlend mode="normal" in2="BackgroundImageFix" result="effect1_dropShadow_1_4845"/>
<feBlend mode="normal" in="SourceGraphic" in2="effect1_dropShadow_1_4845" result="shape"/>
</filter>
</defs>
</svg>
