<svg width="46" height="46" viewBox="0 0 46 46" fill="none" xmlns="http://www.w3.org/2000/svg">
<circle cx="23" cy="23" r="23" fill="#FF5500"/>
<path d="M11.2579 21.6953H37.3541C37.7001 21.6953 38.032 21.8328 38.2767 22.0775C38.5214 22.3222 38.6589 22.6541 38.6589 23.0001C38.6589 23.3462 38.5214 23.6781 38.2767 23.9228C38.032 24.1675 37.7001 24.3049 37.3541 24.3049H11.2579C10.9119 24.3049 10.58 24.1675 10.3353 23.9228C10.0906 23.6781 9.95312 23.3462 9.95312 23.0001C9.95312 22.6541 10.0906 22.3222 10.3353 22.0775C10.58 21.8328 10.9119 21.6953 11.2579 21.6953Z" fill="white"/>
<path d="M11.8006 23.0028L22.6227 33.8223C22.8677 34.0673 23.0053 34.3996 23.0053 34.7461C23.0053 35.0926 22.8677 35.4249 22.6227 35.6699C22.3776 35.9149 22.0453 36.0526 21.6988 36.0526C21.3524 36.0526 21.0201 35.9149 20.775 35.6699L9.03177 23.9267C8.91026 23.8054 8.81386 23.6615 8.74808 23.5029C8.6823 23.3444 8.64844 23.1745 8.64844 23.0028C8.64844 22.8312 8.6823 22.6613 8.74808 22.5028C8.81386 22.3442 8.91026 22.2003 9.03177 22.079L20.775 10.3358C21.0201 10.0908 21.3524 9.95313 21.6988 9.95312C22.0453 9.95313 22.3776 10.0908 22.6227 10.3358C22.8677 10.5808 23.0053 10.9131 23.0053 11.2596C23.0053 11.6061 22.8677 11.9384 22.6227 12.1834L11.8006 23.0028Z" fill="white"/>
</svg>
