<svg width="163" height="58" viewBox="0 0 163 58" fill="none" xmlns="http://www.w3.org/2000/svg">
<path d="M143.5 55L142.5 30.04C147.06 32.5804 156.456 40.8793 158.377 54.0638C158.455 54.5951 158.905 55 159.442 55V55C160.026 55 160.5 54.5263 160.5 53.9419V29" stroke="white" stroke-width="5" stroke-linecap="round" stroke-linejoin="round"/>
<path d="M133.19 36.3953C133.493 33.1949 130.89 27.6924 118.725 29.2822C116.842 29.5284 115.5 31.1924 115.5 33.0917V51C115.5 53.2091 117.291 55 119.5 55H129.324C130.236 55 131.137 54.7053 131.771 54.0504C134.313 51.4256 136.601 46.6651 131.211 42.5463C130.6 42.0796 129.833 41.8673 129.064 41.8673H123.362" stroke="white" stroke-width="5" stroke-linecap="round" stroke-linejoin="round"/>
<path d="M28 0.499509V13.9995C16.8 13.9995 13.6667 23.3328 13.5 27.9995H0C3.2 2.79951 20 -0.833825 28 0.499509Z" fill="white"/>
<path d="M56 28.5H42.5C40.9 40.1 32.1667 42.6667 28 42.5V56.5C32.4 57.7 39.5 54.6667 42.5 53V56.5H56V28.5Z" fill="white"/>
<circle cx="48.5" cy="7" r="7" fill="#F36D36"/>
<circle cx="107" cy="28.5" r="2.5" fill="#F36D36"/>
<path d="M86 29L73.5 54.5C86.3 42.1 96.1667 49.3333 99.5 54.5L86 29Z" stroke="white" stroke-width="5" stroke-linejoin="round"/>
<path d="M107.5 36V55" stroke="white" stroke-width="5" stroke-linecap="round" stroke-linejoin="round"/>
</svg>
